<svg xmlns="http://www.w3.org/2000/svg" width="25" height="25" viewBox="0 0 25 25" fill="none">
  <path d="M1.06273 0.763388L1.06271 0.763382C0.947982 0.722508 0.811335 0.780023 0.764695 0.914406L1.06273 0.763388ZM1.06273 0.763388L1.4593 0.904666L1.45931 0.904671M1.06273 0.763388L1.45931 0.904671M1.45931 0.904671C2.28513 1.19884 2.92614 1.42843 3.41947 1.67372L3.41948 1.67373M1.45931 0.904671L3.41948 1.67373M3.41948 1.67373C3.92982 1.92747 4.30551 2.20872 4.58242 2.61934C4.85916 3.02971 4.98966 3.49877 5.05338 4.09528C5.08198 4.36302 5.09795 4.66835 5.10651 5.01854L5.12438 5.75023M3.41948 1.67373L5.12438 5.75023M5.12438 5.75023H5.85628M5.12438 5.75023H5.85628M5.85628 5.75023H19.8537C20.9763 5.75023 21.9822 5.75126 22.7801 5.84164C23.1772 5.88662 23.4873 5.95034 23.7149 6.03138C23.9479 6.11436 24.0302 6.19275 24.0532 6.22313L24.0533 6.22319M5.85628 5.75023L24.0533 6.22319M24.0533 6.22319C24.1881 6.40075 24.2783 6.66857 24.2419 7.26683C24.2045 7.8801 24.0466 8.69037 23.8143 9.86979C23.8142 9.87059 23.814 9.8714 23.8138 9.8722L23.1571 13.1006L23.1571 13.1006M24.0533 6.22319L23.1571 13.1006M23.1571 13.1006C22.9461 14.1381 22.8 14.8501 22.6232 15.3816M23.1571 13.1006L22.6232 15.3816M4.19653 2.90904L4.19654 2.90906C4.40954 3.22493 4.52396 3.60133 4.5827 4.15118M4.19653 2.90904L5.66329 15.7759C5.20526 15.2863 4.95774 14.798 4.81605 13.9597C4.66536 13.0682 4.64244 11.8325 4.64244 9.85348V6.38463C4.64244 5.41475 4.6421 4.70727 4.5827 4.15118M4.19653 2.90904C3.98382 2.59362 3.68667 2.35913 3.2179 2.12607L4.19653 2.90904ZM4.5827 4.15118L3.83694 4.23085L4.58269 4.15117C4.58269 4.15118 4.5827 4.15118 4.5827 4.15118ZM0.911483 1.23711L0.911503 1.23712L1.25519 1.35957C1.25519 1.35957 1.25519 1.35957 1.2552 1.35957C2.11608 1.66628 2.74356 1.89022 3.21789 2.12606L0.911483 1.23711ZM0.911483 1.23711C0.792029 1.19456 0.716538 1.05325 0.764688 0.914428L0.911483 1.23711ZM22.6232 15.3816C22.4527 15.8944 22.2799 16.1528 22.0666 16.3289M22.6232 15.3816L22.0666 16.3289M22.0666 16.3289C21.8544 16.5042 21.5727 16.6222 21.0465 16.6874M22.0666 16.3289L21.0465 16.6874M21.0465 16.6874C20.4991 16.7553 19.7834 16.7567 18.7374 16.7567M21.0465 16.6874L18.7374 16.7567M18.7374 16.7567H11.76M18.7374 16.7567H11.76M11.76 16.7567C9.90258 16.7567 8.59008 16.7549 7.59588 16.612M11.76 16.7567L7.59588 16.612M7.59588 16.612C6.62867 16.473 6.07323 16.214 5.66331 15.7759L7.59588 16.612ZM3.7505 1.00795L3.75339 1.00216L3.7505 1.00795Z" stroke="white" stroke-width="1.5"/>
  <path d="M7.18216 21C8.27218 21 9.15582 21.8955 9.15582 23C9.15582 24.1045 8.27218 24.9999 7.18216 24.9999C6.09213 24.9999 5.2085 24.1045 5.2085 23C5.2085 21.8955 6.09213 21 7.18216 21Z" fill="white"/>
  <path d="M19.024 21.75C19.6904 21.75 20.2476 22.3002 20.2476 23C20.2476 23.6997 19.6904 24.2499 19.024 24.2499C18.3575 24.2499 17.8003 23.6997 17.8003 23C17.8003 22.3002 18.3575 21.75 19.024 21.75Z" fill="white" stroke="white" stroke-width="1.5"/>
</svg>