<svg xmlns="http://www.w3.org/2000/svg" width="64" height="78" viewBox="0 0 64 78" fill="none">
  <path d="M49.7023 46.5186C50.9606 45.5417 52.0341 44.4188 52.8831 43.1847H53.8065C58.2593 43.1847 61.882 40.2882 61.882 36.7277V20.2228C61.882 17.7067 61.3107 15.2513 60.1838 12.9252C58.3615 9.16093 55.2019 5.94583 51.0469 3.62741C46.7931 1.2545 41.7934 0 36.5877 0H27.2265C22.0209 0 17.0209 1.2548 12.7667 3.62847C8.6355 5.93388 5.4891 9.12491 3.66309 12.8605C3.65079 12.8826 3.63905 12.905 3.62788 12.9277C2.50286 15.2556 1.9323 17.7098 1.9323 20.2228V34.0799C1.9323 36.0838 3.97109 37.714 6.47726 37.714H7.5739C8.00077 37.714 8.41232 37.6633 8.80455 37.5751C9.16877 40.9904 11.0608 44.1581 14.1084 46.52C6.07556 49.2289 0.692932 55.562 0.692932 62.7016V76.1461C0.692932 76.8925 1.44976 77.4976 2.38322 77.4976H61.4332C62.367 77.4976 63.1234 76.8925 63.1234 76.1461V62.7016C63.1236 55.5606 57.738 49.2267 49.7023 46.5186ZM54.3205 40.4581C54.6762 39.5202 54.9077 38.5576 55.0114 37.5757C55.4029 37.6638 55.8137 37.7143 56.24 37.7143H57.3366C57.6899 37.7143 58.032 37.6787 58.3621 37.6176C57.9004 39.1291 56.2949 40.2852 54.3205 40.4581ZM58.501 26.5171V34.0799C58.501 34.5934 57.9788 35.011 57.3366 35.011H56.24C55.5979 35.011 55.0756 34.5932 55.0756 34.0799V26.0795C55.0756 25.5661 55.5979 25.1485 56.24 25.1485H57.3366C57.9788 25.1485 58.501 25.5661 58.501 26.0795V26.5171ZM8.73867 34.0799C8.73867 34.5934 8.2162 35.011 7.57409 35.011H6.47745C5.83534 35.011 5.31305 34.5932 5.31305 34.0799V26.5171V26.0795C5.31305 25.5661 5.83534 25.1485 6.47745 25.1485H7.57409C8.2162 25.1485 8.73867 25.5661 8.73867 26.0795V34.0799ZM8.73867 20.805V22.5709C8.36631 22.4918 7.9773 22.4454 7.57409 22.4454H6.47745C6.07443 22.4454 5.68541 22.4918 5.31305 22.5709V20.223C5.31305 18.067 5.79691 15.962 6.75138 13.9647C6.76273 13.9443 6.77352 13.9237 6.78356 13.9027C8.36102 10.6417 11.0989 7.85558 14.7011 5.84548C18.3852 3.78967 22.7162 2.70319 27.2262 2.70319H36.5874C41.0975 2.70319 45.4284 3.78952 49.1116 5.84442C52.7135 7.85406 55.4518 10.64 57.0305 13.9013C58.0062 15.9152 58.5007 18.042 58.5007 20.223V22.5709C58.1283 22.4918 57.7393 22.4454 57.3363 22.4454H56.2396C55.8366 22.4454 55.4476 22.4918 55.0752 22.5709V20.805C55.0752 12.1452 46.264 5.09987 35.4336 5.09987H28.38C17.55 5.09972 8.73867 12.1451 8.73867 20.805ZM12.1194 20.8051C12.1194 13.6358 19.4142 7.80306 28.3805 7.80306H35.4341C44.4005 7.80306 51.6952 13.6358 51.6952 20.8051V25.0203L44.1271 16.5499C43.7663 16.146 43.1577 15.9324 42.5413 15.9945C41.9253 16.0563 41.401 16.3832 41.1763 16.8459C39.6649 19.9552 37.0459 22.5942 33.6026 24.4781C30.1594 26.3615 26.1345 27.3572 21.9624 27.3572H12.1198L12.1194 20.8051ZM12.1194 36.3626V34.0801V30.0599H21.962C26.818 30.0599 31.5033 28.9011 35.5114 26.7089C38.6854 24.9727 41.2577 22.6847 43.0645 20.0106L51.6952 29.6704V34.0802V36.3628C51.6952 37.787 51.3689 39.1683 50.7334 40.4818H38.4721C37.5382 40.4818 36.7818 41.087 36.7818 41.8334C36.7818 42.5797 37.5384 43.1849 38.4721 43.1849H48.8759C47.9005 44.2365 46.7035 45.152 45.3314 45.8852C44.2965 46.4378 43.1717 46.8818 41.9867 47.2045C41.9725 47.2081 41.9581 47.2117 41.9441 47.2155L34.0931 49.3288C32.6894 49.7069 31.1296 49.7069 29.7219 49.3288L21.8717 47.2155C20.6691 46.8917 19.5293 46.444 18.4836 45.885C14.4984 43.7569 12.1194 40.1971 12.1194 36.3626ZM42.6984 57.4012L33.5987 53.4848V52.2047C34.1319 52.1336 34.6574 52.029 35.1716 51.8905L41.1558 50.2795L42.6984 57.4012ZM30.2177 52.205V53.485L21.1164 57.4013L22.6604 50.2805L28.6437 51.8911C29.1586 52.0294 29.6844 52.1339 30.2177 52.205ZM30.2177 74.7947H4.0735V62.7019C4.07369 56.1253 9.46825 50.3557 17.2785 48.4732C17.9679 48.8066 18.6865 49.1019 19.4292 49.3579L17.1918 59.6766C17.0814 60.1862 17.3442 60.7016 17.8691 61.0041C18.1625 61.1733 18.5092 61.2593 18.8577 61.2593C19.132 61.2593 19.4072 61.206 19.6582 61.0979L24.008 59.2264L30.2177 64.1902V74.7947ZM27.1167 57.8889L31.9084 55.8273L36.6985 57.8887L31.9082 61.7189L27.1167 57.8889ZM59.7429 74.7946H33.5987V64.1899L39.8066 59.226L44.1561 61.0976C44.4069 61.2055 44.6823 61.259 44.9566 61.259C45.3048 61.259 45.6516 61.173 45.9452 61.0039C46.4699 60.7015 46.7329 60.1862 46.6225 59.6766L44.3872 49.3571C45.1285 49.1015 45.8463 48.806 46.5358 48.4729C54.3475 50.3552 59.7431 56.1249 59.7431 62.7016L59.7429 74.7946Z" fill="black"/>
</svg>