<svg width="101" height="79" viewBox="0 0 101 79" fill="none" xmlns="http://www.w3.org/2000/svg">
<g id="free shipping">
<g id="Group 3">
<path id="Vector" d="M86.3945 70.426C86.3945 66.0382 83.538 62.8518 80.4252 62.8518C77.3146 62.8518 74.4596 66.0374 74.4596 70.426C74.4596 74.8127 77.3148 78.0002 80.4252 78.0002C83.5378 78.0002 86.3945 74.8121 86.3945 70.426Z" stroke="black" stroke-width="2"/>
<path id="Vector_2" d="M99.194 33.6037L99.1923 33.6012L85.692 13.6654C85.692 13.6653 85.6919 13.6653 85.6919 13.6652C85.4542 13.3144 85.1626 13.1892 84.9312 13.1892H66.0744C65.6668 13.1892 65.0043 13.6777 65.0043 14.7361V52.7578C65.0043 54.5118 63.8136 56.3029 61.9344 56.3029H2.5701C2.16216 56.3029 1.49998 56.7919 1.49998 57.8516V61.3C1.49998 62.3564 2.16079 62.8448 2.5701 62.8448H14.5992C16.4445 59.9454 19.3741 57.9778 22.7603 57.9778C26.15 57.9778 29.0788 59.9454 30.9255 62.8448H72.2628C74.1097 59.9454 77.0406 57.9778 80.4252 57.9778C83.8131 57.9778 86.7428 59.9454 88.5896 62.8448H98.4316C98.8363 62.8448 99.5 62.3558 99.5 61.3V52.1556V34.6682C99.5 34.2565 99.3813 33.8785 99.194 33.6037ZM93.2995 32.7267L93.3009 32.7289C93.7209 33.369 93.9426 34.1458 93.9426 34.9313V36.6933C93.9426 38.4916 92.7241 40.3166 90.8086 40.3166H73.7459C71.8311 40.3166 70.6102 38.4927 70.6102 36.6933V21.8692C70.6102 20.0697 71.8312 18.2461 73.7459 18.2461H82.1902C83.2207 18.2461 84.1196 18.8172 84.679 19.6642L84.6792 19.6645L93.2995 32.7267Z" stroke="black" stroke-width="2"/>
<path id="Vector_3" d="M28.7305 70.426C28.7305 66.0382 25.8749 62.8518 22.7603 62.8518C19.6499 62.8518 16.7945 66.0375 16.7945 70.426C16.7945 74.8126 19.6499 78.0002 22.7603 78.0002C25.8747 78.0002 28.7305 74.8121 28.7305 70.426Z" stroke="black" stroke-width="2"/>
<path id="Vector_4" d="M24.8416 23.8342V21.728H26.3273C26.6237 21.728 26.7936 21.8268 26.9003 21.9476C27.0185 22.0813 27.1439 22.3415 27.1439 22.7911C27.1439 23.2228 27.0211 23.4788 26.9019 23.613C26.7934 23.7352 26.6216 23.8342 26.3273 23.8342H24.8416Z" stroke="black" stroke-width="2"/>
<path id="Vector_5" d="M31.3037 31.2123L31.3008 31.2057L31.2979 31.199L29.6706 27.5591C30.9496 26.435 31.6406 24.7194 31.6406 22.766C31.6406 21.0622 31.1261 19.5314 30.1371 18.4122C29.1383 17.2818 27.7154 16.6422 26.0623 16.6422H21.7996C21.1104 16.6422 20.4995 16.9307 20.0851 17.4588C19.8268 17.7881 19.6712 18.1751 19.5948 18.5802C19.5087 18.1611 19.3307 17.7664 19.0512 17.4367C18.6255 16.9347 18.01 16.6422 17.3125 16.6422H10.8004C10.1112 16.6422 9.50039 16.9308 9.08604 17.4589C8.69287 17.96 8.53769 18.5949 8.53769 19.2238V32.4082C8.53769 33.1514 8.73602 33.8579 9.16267 34.4022C9.60211 34.9629 10.2518 35.3029 10.9971 35.3029C11.7402 35.3029 12.385 34.9574 12.8189 34.399C13.2409 33.8561 13.4393 33.1516 13.4393 32.4082V28.553H16.3467C17.0392 28.553 17.6626 28.284 18.0976 27.7717C18.5165 27.2784 18.6887 26.6464 18.6887 26.0216C18.6887 25.3973 18.5162 24.7659 18.0973 24.273C17.6624 23.7612 17.0391 23.4923 16.3467 23.4923H13.4393V21.7272H17.3125C18.0084 21.7272 18.6218 21.4366 19.0472 20.9413C19.2758 20.675 19.4376 20.3654 19.5367 20.0345V32.4082C19.5367 33.1508 19.7344 33.8575 20.1614 34.4023C20.6016 34.9638 21.2522 35.3029 21.9981 35.3029C22.7454 35.3029 23.3928 34.9601 23.8276 34.3955C24.2477 33.8499 24.4385 33.1451 24.4385 32.4082V28.8682H24.8663L26.8575 33.5765L26.8575 33.5765L26.8609 33.5845C27.077 34.0833 27.3768 34.5194 27.7887 34.8323C28.2127 35.1545 28.6995 35.3027 29.2 35.3027C29.9664 35.3027 30.5976 34.9474 31.0107 34.4081C31.4069 33.891 31.5818 33.24 31.5818 32.6047C31.5818 32.1479 31.5004 31.67 31.3037 31.2123ZM2.98066 1H58.6014C59.2342 1 60.082 1.71435 60.082 3.05682V48.6594C60.082 49.9969 59.235 50.7122 58.6014 50.7122H2.98066C2.34572 50.7122 1.5 49.9974 1.5 48.6594V3.05682C1.5 1.71368 2.34644 1 2.98066 1ZM36.7578 21.7272H40.633C41.3282 21.7272 41.9408 21.4358 42.3655 20.9413C42.7795 20.4592 42.9752 19.8342 42.9752 19.1979C42.9752 18.5556 42.7831 17.9247 42.3695 17.437C41.9445 16.9358 41.3299 16.6424 40.633 16.6424H34.1191C33.4304 16.6424 32.8202 16.9316 32.4063 17.4589C32.0132 17.9596 31.8572 18.5943 31.8572 19.224V32.5809C31.8572 33.2095 32.0136 33.8434 32.4063 34.3436C32.8196 34.8701 33.4294 35.1607 34.1191 35.1607H40.633C41.3289 35.1607 41.9437 34.8686 42.3692 34.3672C42.7834 33.8792 42.9752 33.2481 42.9752 32.6052C42.9752 31.9675 42.7801 31.3418 42.3648 30.8592C41.9391 30.3643 41.3261 30.0756 40.633 30.0756H36.7578V28.3605H39.6842C40.3691 28.3605 40.984 28.0845 41.4126 27.5802C41.8277 27.0917 42.009 26.4621 42.009 25.8271C42.009 25.1937 41.8269 24.5655 41.4123 24.078C40.9843 23.575 40.37 23.2978 39.6842 23.2978H36.7578V21.7272ZM47.9121 21.7272H51.7873C52.4834 21.7272 53.0967 21.4364 53.5216 20.9406C53.9356 20.4576 54.1293 19.8325 54.1293 19.1979C54.1293 18.5572 53.939 17.9262 53.5256 17.4377C53.1003 16.9352 52.485 16.6424 51.7873 16.6424H45.2768C44.5873 16.6424 43.9754 16.9299 43.5599 17.4583C43.1657 17.9598 43.0105 18.5951 43.0105 19.224V32.5809C43.0105 33.2086 43.1661 33.8432 43.5599 34.3441C43.9748 34.8719 44.5863 35.1607 45.2768 35.1607H51.7873C52.484 35.1607 53.0995 34.8692 53.5253 34.3665C53.9393 33.8778 54.1293 33.2465 54.1293 32.6052C54.1293 31.9692 53.936 31.3433 53.5209 30.8599C53.0948 30.3637 52.4812 30.0756 51.7873 30.0756H47.9121V28.3605H50.8418C51.5263 28.3605 52.1402 28.0834 52.5677 27.5794C52.9818 27.0913 53.1631 26.4621 53.1631 25.8271C53.1631 25.1937 52.9811 24.5659 52.5674 24.0788C52.1406 23.576 51.5272 23.2978 50.8418 23.2978H47.9121V21.7272Z" fill="black" stroke="black" stroke-width="2"/>
</g>
</g>
</svg>
