<svg width="21" height="18" viewBox="0 0 21 18" fill="none" xmlns="http://www.w3.org/2000/svg">
<g id="like">
<path id="Vector" d="M12.2419 2.35444L12.242 2.35432C12.6496 1.94612 13.1335 1.62234 13.666 1.40146C14.1985 1.18057 14.7693 1.06689 15.3457 1.06689C15.9221 1.06689 16.4929 1.18057 17.0254 1.40146C17.5579 1.62234 18.0418 1.94612 18.4494 2.35432L18.4497 2.35457C18.8575 2.76257 19.181 3.24705 19.4017 3.78035C19.6225 4.31364 19.7361 4.88527 19.7361 5.46257C19.7361 6.03988 19.6225 6.61151 19.4017 7.1448C19.181 7.67809 18.8575 8.16257 18.4497 8.57058L18.4496 8.57071L17.4592 9.56209L10.7209 16.3073L3.98258 9.56209L2.99222 8.57071C2.16887 7.74651 1.70618 6.6285 1.70618 5.46257C1.70618 4.29665 2.16887 3.17864 2.99222 2.35444C3.81554 1.53027 4.93205 1.06739 6.09607 1.06739C7.26009 1.06739 8.3766 1.53027 9.19992 2.35444L10.1903 3.34582C10.331 3.48664 10.5218 3.56577 10.7209 3.56577C10.9199 3.56577 11.1108 3.48664 11.2515 3.34582L12.2419 2.35444Z" stroke="black" stroke-width="1.5" stroke-linecap="round" stroke-linejoin="round"/>
</g>
</svg>
