<svg xmlns="http://www.w3.org/2000/svg" width="24" height="24" viewBox="0 0 24 24" fill="none">
  <path d="M17.5 1C15.9813 1 14.6063 1.74343 13.6112 2.94555L12.2434 4.58974C12.109 4.75204 11.8917 4.75204 11.7573 4.58974C11.7573 4.58974 10.3923 2.94181 10.3895 2.94555C9.39369 1.74343 8.01869 1 6.5 1C3.46228 1 1 3.97332 1 7.64151C1 9.02709 1.352 10.3131 1.95322 11.3774C1.95322 11.3774 2.20553 11.8605 2.50391 12.2204C2.80228 12.5803 11.0279 22.5135 11.0279 22.5135C11.2963 22.8377 11.6483 23 12 23C12.3517 23 12.7037 22.8377 12.9721 22.5135C12.9721 22.5135 21.1981 12.5803 21.4961 12.2204C21.7941 11.8605 22.0468 11.3774 22.0468 11.3774C22.648 10.3131 23 9.02709 23 7.64151C23 3.97332 20.5377 1 17.5 1ZM21.1829 11.3678C21.1829 11.3678 20.9726 11.6791 20.5563 12.1818C20.14 12.6845 12.4861 21.9266 12.4861 21.9266C12.3517 22.0889 12.176 22.1698 12 22.1698C11.824 22.1698 11.6483 22.0889 11.5139 21.9266C11.5139 21.9266 3.86 12.6841 3.44372 12.1814C3.02744 11.6787 2.81706 11.3674 2.81706 11.3674C2.11547 10.3583 1.6875 9.06279 1.6875 7.64151C1.6875 4.432 3.84212 1.83019 6.5 1.83019C7.82894 1.83019 9.03206 2.48023 9.90278 3.53249L9.90588 3.52875L11.5139 5.47015C11.7824 5.79434 12.2176 5.79434 12.4861 5.47015L14.0941 3.52875L14.0972 3.53249C14.9679 2.48023 16.1711 1.83019 17.5 1.83019C20.1579 1.83019 22.3125 4.432 22.3125 7.64151C22.3125 9.06279 21.8845 10.3583 21.1829 11.3678Z" fill="white" stroke="white"/>
</svg>