<svg width="85" height="85" viewBox="0 0 85 85" fill="none" xmlns="http://www.w3.org/2000/svg">
<g id="money back">
<g id="Group">
<g id="Group_2">
<path id="Vector" d="M2.06879 59.0649H19.0281L30.3835 54.2476C30.5463 54.1783 30.7213 54.1428 30.8984 54.1428H51.6414C55.2765 54.1428 58.2334 57.1 58.2334 60.7348V63.5474C58.2334 64.1939 58.1398 64.8192 57.9655 65.4101L74.1963 58.3913C77.4886 56.9676 81.2595 58.3967 82.7817 61.6441L83.5905 63.3693C84.3506 64.991 84.4225 66.8073 83.7931 68.4841C83.1636 70.1609 81.914 71.4815 80.274 72.2022L68.3447 77.4458C67.6783 77.7392 66.9002 77.4359 66.6072 76.7692C66.3141 76.1027 66.6172 75.3248 67.2838 75.0317L79.2129 69.7881C80.1969 69.3558 80.9465 68.5634 81.3246 67.5574C81.702 66.5514 81.6589 65.4615 81.2029 64.4884L80.3941 62.7633C79.4808 60.8146 77.2184 59.9576 75.2427 60.8115L53.9225 70.031C53.7574 70.1024 53.5791 70.1392 53.3992 70.1392H51.6413H33.3594C32.6311 70.1392 32.0409 69.5492 32.0409 68.8208C32.0409 68.0925 32.631 67.5023 33.3594 67.5023H51.6414C53.8223 67.5023 55.5967 65.728 55.5967 63.5471V60.7345C55.5967 58.5536 53.8223 56.7793 51.6414 56.7793H31.1665L19.8111 61.5966C19.6483 61.6658 19.4733 61.7013 19.2962 61.7013H3.38725V74.2627L21.0728 81.468C21.2317 81.5326 21.3991 81.5655 21.5705 81.5655H52.1419C52.3257 81.5655 52.5043 81.528 52.6724 81.454L63.0642 76.8862C63.7311 76.5933 64.5087 76.8962 64.8019 77.5626C65.095 78.2291 64.7919 79.0072 64.1255 79.3002L53.7335 83.8681C53.2288 84.0899 52.6933 84.2023 52.1419 84.2023H21.5705C21.0567 84.2023 20.5548 84.1038 20.0782 83.9099L1.5713 76.3699C1.07496 76.1678 0.75032 75.6851 0.75032 75.149V60.3827C0.75032 59.6552 1.34056 59.0649 2.06879 59.0649Z" fill="black"/>
</g>
</g>
<g id="Group_3">
<g id="Group_4">
<path id="Vector_2" d="M27.6762 31.9132C27.8665 31.2103 28.5899 30.7947 29.2931 30.985C29.9959 31.1751 30.4114 31.8991 30.2213 32.602C29.9123 33.7441 29.7558 34.9294 29.7558 36.1248C29.7558 43.5401 35.7883 49.5726 43.2035 49.5726C50.6188 49.5726 56.6513 43.5401 56.6513 36.1248C56.6513 28.7096 50.6188 22.677 43.2035 22.677C38.8095 22.677 34.6831 24.8318 32.1654 28.4413C31.749 29.0383 30.9274 29.1855 30.3299 28.7683C29.7327 28.3517 29.5864 27.5299 30.0029 26.9327C33.0133 22.6169 37.9483 20.0403 43.2035 20.0403C52.0726 20.0403 59.2883 27.2559 59.2883 36.125C59.2883 44.9941 52.0726 52.2097 43.2035 52.2097C34.3344 52.2097 27.1188 44.9941 27.1188 36.125C27.1187 34.6968 27.3061 33.2799 27.6762 31.9132Z" fill="black"/>
</g>
</g>
<g id="Group_5">
<g id="Group_6">
<path id="Vector_3" d="M38.2813 31.2907C37.5531 31.2907 36.9629 30.7007 36.9629 29.9723C36.9629 29.244 37.5529 28.6538 38.2813 28.6538H41.885V27.1595C41.885 26.4313 42.475 25.8411 43.2034 25.8411C43.9316 25.8411 44.5219 26.4311 44.5219 27.1595V28.6538H45.6645C47.3608 28.6538 48.7409 30.0339 48.7409 31.7302V34.5427C48.7409 36.239 47.3608 37.6191 45.6645 37.6191H44.5219V41.3107H48.1255C48.8537 41.3107 49.444 41.9008 49.444 42.6292C49.444 43.3574 48.8539 43.9476 48.1255 43.9476H44.5219V45.4419C44.5219 46.1701 43.9318 46.7604 43.2034 46.7604C42.4752 46.7604 41.885 46.1703 41.885 45.4419V43.9476H40.7423C39.0461 43.9476 37.6659 42.5675 37.6659 40.8713V38.0587C37.6659 36.3625 39.0461 34.9823 40.7423 34.9823H41.885V31.2907H38.2813ZM44.5219 34.9823H45.6645C45.907 34.9823 46.104 34.7853 46.104 34.5429V31.7303C46.104 31.4879 45.907 31.2909 45.6645 31.2909H44.5219V34.9823ZM40.7425 37.6191C40.5 37.6191 40.303 37.8161 40.303 38.0585V40.8711C40.303 41.1135 40.5 41.3105 40.7425 41.3105H41.8851V37.6189L40.7425 37.6191Z" fill="black"/>
</g>
</g>
<g id="Group_7">
<g id="Group_8">
<path id="Vector_4" d="M1.89499 41.1462C2.79013 41.0272 5.04568 40.529 6.65623 38.4756C7.8007 37.0157 8.07518 35.4323 8.13702 34.6185C8.18915 33.9313 8.76229 33.3999 9.4517 33.3999C10.1411 33.3999 10.7142 33.9309 10.7664 34.6185C10.8282 35.4324 11.1029 37.0159 12.2472 38.4756C13.8577 40.529 16.1134 41.0273 17.0084 41.1462C17.6638 41.2332 18.1534 41.7921 18.1534 42.4532C18.1534 43.1143 17.6638 43.673 17.0084 43.7601C16.1133 43.8792 13.8577 44.3774 12.2472 46.4308C11.1029 47.8907 10.8282 49.4741 10.7664 50.2878C10.7142 50.9751 10.1411 51.5065 9.4517 51.5065C8.76229 51.5065 8.18915 50.9754 8.13702 50.2878C8.07518 49.4739 7.80053 47.8907 6.65639 46.431C5.04569 44.3772 2.79013 43.879 1.89499 43.7601C1.23962 43.6731 0.750023 43.1143 0.750023 42.4532C0.750023 41.7921 1.23962 41.2334 1.89499 41.1462ZM8.73154 44.804C9.00569 45.1538 9.24448 45.5075 9.45187 45.86C9.65941 45.5074 9.89804 45.1536 10.1724 44.8038C10.9998 43.7488 11.9474 42.9936 12.8726 42.4532C11.947 41.9128 10.9998 41.1576 10.1724 40.1026C9.89788 39.7526 9.65925 39.3989 9.45187 39.0464C9.24432 39.399 9.00569 39.7528 8.73137 40.1026C7.90398 41.1578 6.95637 41.9129 6.03112 42.4532C6.9567 42.9936 7.90415 43.749 8.73154 44.804Z" fill="black"/>
</g>
</g>
<g id="Group_9">
<g id="Group_10">
<path id="Vector_5" d="M34.9436 7.74634C35.8387 7.62727 38.0943 7.12912 39.7048 5.07569C40.8491 3.61579 41.1238 2.03238 41.1856 1.21864C41.2376 0.531202 41.8107 0 42.5001 0C43.1896 0 43.7627 0.531037 43.8148 1.21864C43.8767 2.03255 44.1513 3.61595 45.2956 5.07569C46.9062 7.12912 49.1619 7.62743 50.0569 7.74634C50.7121 7.8335 51.2017 8.39217 51.2017 9.05329C51.2017 9.71441 50.7121 10.2731 50.0567 10.3602C49.1616 10.4793 46.906 10.9775 45.2955 13.0309C44.1511 14.4908 43.8765 16.0742 43.8147 16.8879C43.7625 17.5752 43.1894 18.1066 42.5 18.1066C41.8106 18.1066 41.2374 17.5755 41.1853 16.8879C41.1235 16.074 40.8488 14.4908 39.7047 13.0311C38.094 10.9773 35.8384 10.4791 34.9433 10.3602C34.2882 10.2731 33.7986 9.71441 33.7986 9.05329C33.7986 8.39217 34.2882 7.8335 34.9436 7.74634ZM41.7798 11.4041C42.054 11.7539 42.2928 12.1076 42.5001 12.4601C42.7077 12.1075 42.9463 11.7537 43.2206 11.4039C44.048 10.3489 44.9956 9.5937 45.9209 9.05329C44.9953 8.51288 44.048 7.75768 43.2206 6.70268C42.9462 6.35271 42.7075 5.99896 42.5001 5.64653C42.2926 5.99913 42.054 6.35288 41.7797 6.70268C40.9523 7.75785 40.0046 8.51304 39.0794 9.05329C40.005 9.5937 40.9524 10.3491 41.7798 11.4041Z" fill="black"/>
</g>
</g>
<g id="Group_11">
<g id="Group_12">
<path id="Vector_6" d="M67.9916 41.1462C68.8866 41.0272 71.1423 40.5289 72.7529 38.4756C73.8973 37.0157 74.1718 35.4323 74.2336 34.6185C74.2861 33.9311 74.8591 33.3999 75.5485 33.3999C76.2379 33.3999 76.811 33.9309 76.8632 34.6185C76.925 35.4324 77.1997 37.0159 78.3438 38.4754C79.9545 40.5292 82.2101 41.0273 83.1052 41.1462C83.7604 41.2334 84.25 41.7921 84.25 42.4532C84.25 43.1143 83.7604 43.673 83.105 43.7601C82.2099 43.8792 79.9543 44.3774 78.3438 46.4308C77.1995 47.8907 76.9248 49.4741 76.863 50.2878C76.8107 50.9751 76.2377 51.5065 75.5483 51.5065C74.8589 51.5065 74.2858 50.9754 74.2336 50.2878C74.1718 49.4739 73.8972 47.8907 72.753 46.431C71.1423 44.3772 68.8868 43.879 67.9916 43.7601C67.3362 43.6731 66.8466 43.1143 66.8466 42.4532C66.8466 41.7921 67.3362 41.2334 67.9916 41.1462ZM74.8282 44.804C75.1023 45.1538 75.3411 45.5075 75.5485 45.86C75.756 45.5074 75.9947 45.1536 76.269 44.8038C77.0964 43.7488 78.044 42.9936 78.9692 42.4532C78.0437 41.9128 77.0962 41.1574 76.2688 40.1024C75.9947 39.7526 75.7559 39.399 75.5485 39.0464C75.3411 39.399 75.1023 39.7526 74.8282 40.1024L74.828 40.1026C74.0006 41.1578 73.053 41.9129 72.1277 42.4532C73.0533 42.9936 74.0008 43.749 74.8282 44.804Z" fill="black"/>
</g>
</g>
</g>
</svg>
