<svg width="15" height="15" viewBox="0 0 15 15" fill="none" xmlns="http://www.w3.org/2000/svg">
<path id="Vector" d="M7.30889 1.56548C7.48819 1.02463 7.5778 0.754215 7.7104 0.679267C7.82511 0.614398 7.96321 0.614398 8.07799 0.679267C8.21051 0.754215 8.30013 1.02463 8.47943 1.56548L9.66469 5.14101C9.71573 5.29494 9.74121 5.3719 9.78722 5.42922C9.82781 5.47985 9.87962 5.51931 9.9381 5.54416C10.0042 5.57231 10.0819 5.57396 10.2373 5.57729L13.8464 5.65441C14.3924 5.66607 14.6653 5.67191 14.7743 5.78095C14.8686 5.87531 14.9113 6.01308 14.8879 6.14754C14.8609 6.30292 14.6434 6.47583 14.2082 6.82182L11.3316 9.10867C11.2077 9.20719 11.1458 9.25641 11.108 9.31992C11.0746 9.37612 11.0549 9.43996 11.0504 9.50591C11.0454 9.58063 11.0678 9.6586 11.1128 9.81462L12.1582 13.4378C12.3163 13.9859 12.3954 14.2599 12.3301 14.4022C12.2737 14.5254 12.1619 14.6105 12.0327 14.6288C11.8835 14.6498 11.6594 14.4864 11.2112 14.1593L8.24808 11.9972C8.12051 11.9041 8.05677 11.8576 7.98745 11.8395C7.92619 11.8235 7.86213 11.8235 7.80094 11.8395C7.73162 11.8576 7.6678 11.9041 7.54024 11.9972L4.57717 14.1593C4.12896 14.4864 3.90486 14.6498 3.75561 14.6288C3.62644 14.6105 3.51468 14.5254 3.45822 14.4022C3.39299 14.2599 3.47206 13.9859 3.63018 13.4378L4.67552 9.81462C4.72052 9.6586 4.74302 9.58063 4.73795 9.50591C4.73347 9.43996 4.71369 9.37612 4.68032 9.31992C4.64255 9.25641 4.58062 9.20719 4.45678 9.10867L1.58016 6.82182C1.14503 6.47583 0.927462 6.30292 0.900454 6.14754C0.877071 6.01308 0.919763 5.87531 1.01405 5.78095C1.12298 5.67191 1.39594 5.66608 1.94187 5.65441L5.55102 5.57729C5.70639 5.57396 5.78408 5.57231 5.85027 5.54416C5.90874 5.51931 5.96054 5.47985 6.00115 5.42922C6.04713 5.3719 6.07264 5.29494 6.12367 5.14101L7.30889 1.56548Z" fill="#008000"/>
</svg>
