<svg width="21" height="20" viewBox="0 0 21 20" fill="none" xmlns="http://www.w3.org/2000/svg">
<path id="star" d="M10.5 1L11.9302 6.31181C12.1047 6.96 12.192 7.28409 12.3642 7.54905C12.5166 7.78349 12.7165 7.98336 12.951 8.1358C13.2159 8.308 13.54 8.3953 14.1882 8.5698L19.5 10L14.1882 11.4302C13.54 11.6047 13.2159 11.692 12.951 11.8642C12.7165 12.0166 12.5166 12.2165 12.3642 12.451C12.192 12.7159 12.1047 13.04 11.9302 13.6882L10.5 19L9.0698 13.6882C8.8953 13.04 8.808 12.7159 8.6358 12.451C8.48336 12.2165 8.28349 12.0166 8.04905 11.8642C7.78409 11.692 7.46 11.6047 6.81181 11.4302L1.5 10L6.81181 8.5698C7.46 8.3953 7.78409 8.308 8.04905 8.1358C8.28349 7.98336 8.48336 7.78349 8.6358 7.54905C8.808 7.28409 8.8953 6.96 9.0698 6.31181L10.5 1Z" fill="black" stroke="black" stroke-width="2" stroke-linecap="round" stroke-linejoin="round"/>
</svg>
